M48
INCH,TZ
T1C0.012
T2C0.016
T3C0.039
T4C0.079
%
G90
G05
T1
X42874Y-36969
X42894Y-39114
X43346Y-37972
X43504Y-41398
X43878Y-42362
X44154Y-36181
X44213Y-39311
X44528Y-37992
X44646Y-39291
X45020Y-38189
X48740Y-39626
X48760Y-40591
T2
X41000Y-36900
X41000Y-37200
X41000Y-37500
X41000Y-37800
X41000Y-38100
X41000Y-38400
X41000Y-38700
X41000Y-39000
X41000Y-39300
X41000Y-39600
X41000Y-39900
X41000Y-40200
X41000Y-40500
X41000Y-40800
X41000Y-41100
X41300Y-39300
X41300Y-39600
X41300Y-39900
X41300Y-40200
X41300Y-40500
X42200Y-37200
X42200Y-38300
X42300Y-36800
X42300Y-37900
X42400Y-40300
X42400Y-40700
X42400Y-41100
X42500Y-38700
X42600Y-42500
X42800Y-35300
X42800Y-35700
X42800Y-40700
X42900Y-36200
X42900Y-42500
X43100Y-38700
X43200Y-42500
X43300Y-36200
X43450Y-39225
X43450Y-39525
X43500Y-42500
X43700Y-36200
X43750Y-39225
X43750Y-39525
X43900Y-40300
X44200Y-40300
X44500Y-40300
X44800Y-40300
X44800Y-42500
X45100Y-42500
X45400Y-37900
X45400Y-42500
X45700Y-42500
X45800Y-37900
X45900Y-40900
X46300Y-41400
X46400Y-38300
X46400Y-38600
X46700Y-37400
X46700Y-38300
X46700Y-38600
X46800Y-37800
X46900Y-41500
X47000Y-42500
X47200Y-37800
X48200Y-42500
X48500Y-42500
X48800Y-42500
X49100Y-42500
X49200Y-41100
X49200Y-41400
X49200Y-42100
X49400Y-42500
X49500Y-35300
X49500Y-35700
X49500Y-36000
X49500Y-36300
X49500Y-41100
X49700Y-42500
X49800Y-35300
X49800Y-35700
X49800Y-36000
X49800Y-36300
X49800Y-36600
X49800Y-36900
X50000Y-37200
X50000Y-42500
X50100Y-35300
X50300Y-41200
X50300Y-42500
X50400Y-35300
X50500Y-41700
X50500Y-42100
X50600Y-42500
X50700Y-35300
X50900Y-42500
X51000Y-35300
X51200Y-42500
X51300Y-35300
X51500Y-42500
X51600Y-35300
X51800Y-42500
X51900Y-35300
X51900Y-35600
X51900Y-35900
X52100Y-42500
X52200Y-35300
X52200Y-35600
X52200Y-35900
X52400Y-42500
X52500Y-35300
X52500Y-35600
X52500Y-35900
X52700Y-42500
X52800Y-35300
X52800Y-35600
X52800Y-35900
X53000Y-42500
X53100Y-35300
X53100Y-35600
X53100Y-35900
X53300Y-42500
X53400Y-35300
X53600Y-42500
X53900Y-42500
X54024Y-39554
X54034Y-38974
X54200Y-42500
X54300Y-39252
X54500Y-42500
X54564Y-38974
X54564Y-39534
X54600Y-35300
X54800Y-42500
X54900Y-35300
X55100Y-42500
X55200Y-35300
X55400Y-42500
X55500Y-35300
X55600Y-36000
X55700Y-42500
X55800Y-35300
X56000Y-42500
X56100Y-35300
X56300Y-41700
X56300Y-42500
X56400Y-35300
X56600Y-41700
X56600Y-42500
X56700Y-35300
X56900Y-41700
X56900Y-42500
X57000Y-35300
X57200Y-41700
X57200Y-42500
X57300Y-35300
X57400Y-40000
X57500Y-41700
X57500Y-42500
X57600Y-35300
X57700Y-39700
X57700Y-40000
X57800Y-41700
X57800Y-42500
X57900Y-35300
X58000Y-39700
X58000Y-40000
X58100Y-42500
X58200Y-35300
X58500Y-35300
X58594Y-41054
X58604Y-41644
X58634Y-36354
X58644Y-37074
X58800Y-35300
X58944Y-41054
X58944Y-41634
X58954Y-37074
X58964Y-36344
X59100Y-35300
X59274Y-41054
X59274Y-41634
X59284Y-37074
X59304Y-36354
X59400Y-35300
X59700Y-35300
X59700Y-42500
X60000Y-35300
X60000Y-35600
X60000Y-35900
X60000Y-36200
X60000Y-36500
X60000Y-36800
X60000Y-37100
X60000Y-37400
X60000Y-38900
X60000Y-39200
X60000Y-39500
X60000Y-39800
X60000Y-40100
X60000Y-40400
X60000Y-40700
X60000Y-41000
X60000Y-41300
X60000Y-41600
X60000Y-41900
X60000Y-42200
X60000Y-42500
T3
X45839Y-36464
X51349Y-37794
T4
X49811Y-41751
X54000Y-35556
T0
M30
