G04 #@! TF.FileFunction,Soldermask,Top*
%FSLAX46Y46*%
G04 Gerber Fmt 4.6, Leading zero omitted, Abs format (unit mm)*
G04 Created by KiCad (PCBNEW 0.201506222246+5806~23~ubuntu14.10.1-product) date Thu 09 Jul 2015 02:08:12 PM CDT*
%MOMM*%
G01*
G04 APERTURE LIST*
%ADD10C,0.100000*%
%ADD11C,2.152400*%
%ADD12R,1.652400X3.152400*%
%ADD13R,1.752400X2.352400*%
%ADD14R,1.752400X1.152400*%
%ADD15R,0.952400X0.902400*%
%ADD16R,0.652400X0.752400*%
%ADD17R,0.752400X0.652400*%
%ADD18R,0.902400X0.952400*%
%ADD19R,5.486400X2.551900*%
%ADD20R,4.252400X3.652400*%
%ADD21R,2.352400X1.652400*%
%ADD22R,2.552400X1.652400*%
%ADD23R,0.952500X0.952500*%
%ADD24R,0.752400X0.552400*%
%ADD25R,0.552400X0.752400*%
%ADD26R,1.402400X1.152400*%
%ADD27R,1.402400X0.552400*%
%ADD28R,1.152400X1.402400*%
%ADD29R,0.552400X1.402400*%
%ADD30R,0.571500X1.295400*%
%ADD31R,1.672400X0.752400*%
%ADD32R,2.302400X2.302400*%
%ADD33R,0.762400X1.422400*%
%ADD34R,0.762400X1.172400*%
%ADD35R,4.062400X3.962400*%
%ADD36R,3.152400X3.152400*%
%ADD37R,3.152400X2.152400*%
%ADD38C,2.652400*%
%ADD39C,2.352400*%
G04 APERTURE END LIST*
D10*
D11*
X126519940Y-106047540D03*
D12*
X123500000Y-105700000D03*
D13*
X106398060Y-99360860D03*
X106398060Y-102360860D03*
D14*
X118800000Y-104100000D03*
X118800000Y-107100000D03*
D15*
X129398460Y-99870260D03*
X127898460Y-99870260D03*
D16*
X141259560Y-94019460D03*
X141259560Y-92919460D03*
X141259560Y-95459460D03*
X141259560Y-96559460D03*
D17*
X115063360Y-106499660D03*
X113963360Y-106499660D03*
D16*
X116697760Y-105124160D03*
X116697760Y-106224160D03*
D18*
X131099560Y-99947160D03*
X131099560Y-98447160D03*
X131023360Y-105051160D03*
X131023360Y-106551160D03*
X129400300Y-105035920D03*
X129400300Y-106535920D03*
X132420360Y-93851160D03*
X132420360Y-92351160D03*
X147228560Y-99667760D03*
X147228560Y-98167760D03*
X152130760Y-96186560D03*
X152130760Y-97686560D03*
X146771360Y-104696960D03*
X146771360Y-103196960D03*
X145399760Y-104696960D03*
X145399760Y-103196960D03*
D19*
X122006360Y-98429210D03*
X122006360Y-91176710D03*
D20*
X142326560Y-102499160D03*
X132826560Y-102499160D03*
D21*
X149743160Y-91253560D03*
X149743160Y-95253560D03*
D22*
X149677120Y-103219640D03*
X149677120Y-106919640D03*
D23*
X112450000Y-92950760D03*
X114350000Y-92950760D03*
X113400000Y-90951780D03*
X108981200Y-92964000D03*
X110881200Y-92964000D03*
X109931200Y-90965020D03*
X108389420Y-97124560D03*
X108389420Y-95224560D03*
X106390440Y-96174560D03*
X125140720Y-102864960D03*
X125140720Y-100964960D03*
X123141740Y-101914960D03*
D24*
X109200000Y-104200000D03*
X109200000Y-105100000D03*
X128076960Y-94287760D03*
X128076960Y-93387760D03*
X128076960Y-91292260D03*
X128076960Y-92192260D03*
D25*
X115128460Y-105191560D03*
X114228460Y-105191560D03*
X112159200Y-96530160D03*
X111259200Y-96530160D03*
D26*
X114303400Y-94427560D03*
X111553400Y-94427560D03*
D27*
X114303400Y-95377560D03*
X111553400Y-95377560D03*
D25*
X110835860Y-106525060D03*
X109935860Y-106525060D03*
D28*
X116781060Y-102261260D03*
X116781060Y-99511260D03*
D29*
X115831060Y-102261260D03*
X115831060Y-99511260D03*
D25*
X112094860Y-105178860D03*
X112994860Y-105178860D03*
X112791660Y-106512360D03*
X111891660Y-106512360D03*
D30*
X112316260Y-103781860D03*
X111681260Y-103781860D03*
X110411260Y-103781860D03*
X111046260Y-103781860D03*
X112951260Y-103781860D03*
X113586260Y-103781860D03*
X114221260Y-103781860D03*
X114856260Y-103781860D03*
X114856260Y-98473260D03*
X114221260Y-98473260D03*
X113578640Y-98473260D03*
X112951260Y-98473260D03*
X112316260Y-98473260D03*
X111681260Y-98473260D03*
X111046260Y-98473260D03*
X110411260Y-98473260D03*
D31*
X139668560Y-96644460D03*
X139668560Y-95374460D03*
X139668560Y-94104460D03*
X139668560Y-92834460D03*
X134468560Y-92834460D03*
X134468560Y-94104460D03*
X134468560Y-95374460D03*
X134468560Y-96644460D03*
D32*
X137068560Y-94739460D03*
D24*
X132648960Y-95140360D03*
X132648960Y-96040360D03*
D33*
X146618960Y-91249040D03*
X145348960Y-91249040D03*
X144078960Y-91249040D03*
X142808960Y-91249040D03*
D34*
X142808960Y-96714040D03*
X144078960Y-96714040D03*
X145348960Y-96714040D03*
X146618960Y-96714040D03*
D35*
X144713960Y-94609040D03*
D36*
X128788160Y-102473760D03*
D37*
X149717760Y-97317560D03*
X149712680Y-100985320D03*
D38*
X130426460Y-95996760D03*
D14*
X130185160Y-93635960D03*
X130185160Y-90635960D03*
D39*
X116431060Y-92618560D03*
D14*
X116479320Y-94781240D03*
X116479320Y-97781240D03*
D36*
X105864660Y-106690160D03*
X105950000Y-91150000D03*
D12*
X121056400Y-105694480D03*
D11*
X137160000Y-90312240D03*
M02*
