G04 #@! TF.FileFunction,Legend,Top*
%FSLAX46Y46*%
G04 Gerber Fmt 4.6, Leading zero omitted, Abs format (unit mm)*
G04 Created by KiCad (PCBNEW 0.201506222246+5806~23~ubuntu14.10.1-product) date Thu 09 Jul 2015 02:08:12 PM CDT*
%MOMM*%
G01*
G04 APERTURE LIST*
%ADD10C,0.100000*%
%ADD11C,0.150000*%
G04 APERTURE END LIST*
D10*
D11*
X104747060Y-102816660D02*
X105509060Y-102816660D01*
X105128060Y-99133660D02*
X104747060Y-99514660D01*
X105483660Y-99133660D02*
X105128060Y-99133660D01*
X104747060Y-99514660D02*
X104747060Y-102816660D01*
X104747060Y-99514660D02*
X104747060Y-102816660D01*
X105483660Y-99133660D02*
X105128060Y-99133660D01*
X105128060Y-99133660D02*
X104747060Y-99514660D01*
X104747060Y-102816660D02*
X105509060Y-102816660D01*
X108049060Y-102791260D02*
X107287060Y-102791260D01*
X107668060Y-99108260D02*
X108049060Y-99489260D01*
X107312460Y-99108260D02*
X107668060Y-99108260D01*
X108049060Y-99489260D02*
X108049060Y-102791260D01*
X108049060Y-99489260D02*
X108049060Y-102791260D01*
X107312460Y-99108260D02*
X107668060Y-99108260D01*
X107668060Y-99108260D02*
X108049060Y-99489260D01*
X108049060Y-102791260D02*
X107287060Y-102791260D01*
X119825000Y-106600000D02*
X119825000Y-104600000D01*
X117775000Y-104600000D02*
X117775000Y-106600000D01*
X128998460Y-100470260D02*
X128298460Y-100470260D01*
X128298460Y-99270260D02*
X128998460Y-99270260D01*
X140784560Y-93219460D02*
X140784560Y-93719460D01*
X141734560Y-93719460D02*
X141734560Y-93219460D01*
X141734560Y-96259460D02*
X141734560Y-95759460D01*
X140784560Y-95759460D02*
X140784560Y-96259460D01*
X114263360Y-106974660D02*
X114763360Y-106974660D01*
X114763360Y-106024660D02*
X114263360Y-106024660D01*
X117172760Y-105924160D02*
X117172760Y-105424160D01*
X116222760Y-105424160D02*
X116222760Y-105924160D01*
X130499560Y-99547160D02*
X130499560Y-98847160D01*
X131699560Y-98847160D02*
X131699560Y-99547160D01*
X131623360Y-105451160D02*
X131623360Y-106151160D01*
X130423360Y-106151160D02*
X130423360Y-105451160D01*
X130000300Y-105435920D02*
X130000300Y-106135920D01*
X128800300Y-106135920D02*
X128800300Y-105435920D01*
X131820360Y-93451160D02*
X131820360Y-92751160D01*
X133020360Y-92751160D02*
X133020360Y-93451160D01*
X146628560Y-99267760D02*
X146628560Y-98567760D01*
X147828560Y-98567760D02*
X147828560Y-99267760D01*
X152730760Y-96586560D02*
X152730760Y-97286560D01*
X151530760Y-97286560D02*
X151530760Y-96586560D01*
X146171360Y-104296960D02*
X146171360Y-103596960D01*
X147371360Y-103596960D02*
X147371360Y-104296960D01*
X144799760Y-104296960D02*
X144799760Y-103596960D01*
X145999760Y-103596960D02*
X145999760Y-104296960D01*
X126095760Y-98892360D02*
X124749560Y-98892360D01*
X126095760Y-98892360D02*
X126095760Y-90713560D01*
X126095760Y-90713560D02*
X124749560Y-90713560D01*
X117916960Y-98892360D02*
X119263160Y-98892360D01*
X117916960Y-98892360D02*
X117916960Y-90713560D01*
X117916960Y-90713560D02*
X119263160Y-90713560D01*
X132052060Y-104404160D02*
X132052060Y-107515660D01*
X132052060Y-107515660D02*
X143101060Y-107515660D01*
X143101060Y-107515660D02*
X143101060Y-104340660D01*
X132052060Y-100657660D02*
X132052060Y-97482660D01*
X132052060Y-97482660D02*
X143101060Y-97482660D01*
X143101060Y-97482660D02*
X143101060Y-100657660D01*
X147685760Y-90992960D02*
X148549360Y-90992960D01*
X147685760Y-90992960D02*
X147685760Y-95514160D01*
X147685760Y-95514160D02*
X148549360Y-95514160D01*
X151013160Y-95514160D02*
X150936960Y-95514160D01*
X151800560Y-90992960D02*
X150936960Y-90992960D01*
X151800560Y-90992960D02*
X151800560Y-95514160D01*
X151800560Y-95514160D02*
X151013160Y-95514160D01*
X147645120Y-103037640D02*
X148381720Y-103037640D01*
X147645120Y-103037640D02*
X147645120Y-107101640D01*
X147645120Y-107101640D02*
X148381720Y-107101640D01*
X151709120Y-103037640D02*
X150972520Y-103037640D01*
X151709120Y-103037640D02*
X151709120Y-107101640D01*
X151709120Y-107101640D02*
X150972520Y-107101640D01*
X114699160Y-91299760D02*
X114650900Y-91299760D01*
X111900180Y-92000800D02*
X111900180Y-91299760D01*
X111900180Y-91299760D02*
X112149100Y-91299760D01*
X114699160Y-91299760D02*
X114899820Y-91299760D01*
X114899820Y-91299760D02*
X114899820Y-92000800D01*
X111230360Y-91313000D02*
X111182100Y-91313000D01*
X108431380Y-92014040D02*
X108431380Y-91313000D01*
X108431380Y-91313000D02*
X108680300Y-91313000D01*
X111230360Y-91313000D02*
X111431020Y-91313000D01*
X111431020Y-91313000D02*
X111431020Y-92014040D01*
X106738420Y-94875400D02*
X106738420Y-94923660D01*
X107439460Y-97674380D02*
X106738420Y-97674380D01*
X106738420Y-97674380D02*
X106738420Y-97425460D01*
X106738420Y-94875400D02*
X106738420Y-94674740D01*
X106738420Y-94674740D02*
X107439460Y-94674740D01*
X123489720Y-100615800D02*
X123489720Y-100664060D01*
X124190760Y-103414780D02*
X123489720Y-103414780D01*
X123489720Y-103414780D02*
X123489720Y-103165860D01*
X123489720Y-100615800D02*
X123489720Y-100415140D01*
X123489720Y-100415140D02*
X124190760Y-100415140D01*
X109725000Y-104900000D02*
X109725000Y-104400000D01*
X108675000Y-104400000D02*
X108675000Y-104900000D01*
X127551960Y-93587760D02*
X127551960Y-94087760D01*
X128601960Y-94087760D02*
X128601960Y-93587760D01*
X128601960Y-91992260D02*
X128601960Y-91492260D01*
X127551960Y-91492260D02*
X127551960Y-91992260D01*
X114428460Y-105716560D02*
X114928460Y-105716560D01*
X114928460Y-104666560D02*
X114428460Y-104666560D01*
X111459200Y-97055160D02*
X111959200Y-97055160D01*
X111959200Y-96005160D02*
X111459200Y-96005160D01*
X113792000Y-95666560D02*
X112064800Y-95666560D01*
X112064800Y-93812360D02*
X113792000Y-93812360D01*
X110135860Y-107050060D02*
X110635860Y-107050060D01*
X110635860Y-106000060D02*
X110135860Y-106000060D01*
X115542060Y-101749860D02*
X115542060Y-100022660D01*
X117396260Y-100022660D02*
X117396260Y-101749860D01*
X112794860Y-104653860D02*
X112294860Y-104653860D01*
X112294860Y-105703860D02*
X112794860Y-105703860D01*
X112091660Y-107037360D02*
X112591660Y-107037360D01*
X112591660Y-105987360D02*
X112091660Y-105987360D01*
X110474760Y-102803960D02*
G75*
G03X110474760Y-102803960I-76200J0D01*
G01*
X110608014Y-102803960D02*
G75*
G03X110608014Y-102803960I-209454J0D01*
G01*
X115148360Y-103438960D02*
X115326160Y-103438960D01*
X115326160Y-103438960D02*
X115326160Y-98892360D01*
X115326160Y-98892360D02*
X115148360Y-98892360D01*
X110093760Y-103464360D02*
X109865160Y-103464360D01*
X109865160Y-103464360D02*
X109865160Y-98841560D01*
X109865160Y-98841560D02*
X110093760Y-98841560D01*
X138183281Y-96659460D02*
G75*
G03X138183281Y-96659460I-44721J0D01*
G01*
X138272782Y-96659460D02*
G75*
G03X138272782Y-96659460I-144222J0D01*
G01*
X138578560Y-97189460D02*
X135568560Y-97189460D01*
X135568560Y-97189460D02*
X135568560Y-92289460D01*
X135568560Y-92289460D02*
X138578560Y-92289460D01*
X138578560Y-92289460D02*
X138578560Y-97189460D01*
X133173960Y-95840360D02*
X133173960Y-95340360D01*
X132123960Y-95340360D02*
X132123960Y-95840360D01*
X147313960Y-90469040D02*
X147313960Y-96669040D01*
X142113960Y-91169040D02*
X142113960Y-96669040D01*
X129160160Y-91135960D02*
X129160160Y-93135960D01*
X131210160Y-93135960D02*
X131210160Y-91135960D01*
X117504320Y-97281240D02*
X117504320Y-95281240D01*
X115454320Y-95281240D02*
X115454320Y-97281240D01*
X123102382Y-107928571D02*
X123245239Y-107976190D01*
X123292858Y-108023810D01*
X123340477Y-108119048D01*
X123340477Y-108261905D01*
X123292858Y-108357143D01*
X123245239Y-108404762D01*
X123150001Y-108452381D01*
X122769048Y-108452381D01*
X122769048Y-107452381D01*
X123102382Y-107452381D01*
X123197620Y-107500000D01*
X123245239Y-107547619D01*
X123292858Y-107642857D01*
X123292858Y-107738095D01*
X123245239Y-107833333D01*
X123197620Y-107880952D01*
X123102382Y-107928571D01*
X122769048Y-107928571D01*
X123769048Y-108071429D02*
X124530953Y-108071429D01*
X105259143Y-98210666D02*
X105306762Y-98258285D01*
X105354381Y-98401142D01*
X105354381Y-98496380D01*
X105306762Y-98639238D01*
X105211524Y-98734476D01*
X105116286Y-98782095D01*
X104925810Y-98829714D01*
X104782952Y-98829714D01*
X104592476Y-98782095D01*
X104497238Y-98734476D01*
X104402000Y-98639238D01*
X104354381Y-98496380D01*
X104354381Y-98401142D01*
X104402000Y-98258285D01*
X104449619Y-98210666D01*
X105354381Y-97258285D02*
X105354381Y-97829714D01*
X105354381Y-97544000D02*
X104354381Y-97544000D01*
X104497238Y-97639238D01*
X104592476Y-97734476D01*
X104640095Y-97829714D01*
X118613014Y-106058743D02*
X118565395Y-106106362D01*
X118422538Y-106153981D01*
X118327300Y-106153981D01*
X118184442Y-106106362D01*
X118089204Y-106011124D01*
X118041585Y-105915886D01*
X117993966Y-105725410D01*
X117993966Y-105582552D01*
X118041585Y-105392076D01*
X118089204Y-105296838D01*
X118184442Y-105201600D01*
X118327300Y-105153981D01*
X118422538Y-105153981D01*
X118565395Y-105201600D01*
X118613014Y-105249219D01*
X118946347Y-105153981D02*
X119565395Y-105153981D01*
X119232061Y-105534933D01*
X119374919Y-105534933D01*
X119470157Y-105582552D01*
X119517776Y-105630171D01*
X119565395Y-105725410D01*
X119565395Y-105963505D01*
X119517776Y-106058743D01*
X119470157Y-106106362D01*
X119374919Y-106153981D01*
X119089204Y-106153981D01*
X118993966Y-106106362D01*
X118946347Y-106058743D01*
X128215094Y-98797383D02*
X128167475Y-98845002D01*
X128024618Y-98892621D01*
X127929380Y-98892621D01*
X127786522Y-98845002D01*
X127691284Y-98749764D01*
X127643665Y-98654526D01*
X127596046Y-98464050D01*
X127596046Y-98321192D01*
X127643665Y-98130716D01*
X127691284Y-98035478D01*
X127786522Y-97940240D01*
X127929380Y-97892621D01*
X128024618Y-97892621D01*
X128167475Y-97940240D01*
X128215094Y-97987859D01*
X129072237Y-98225954D02*
X129072237Y-98892621D01*
X128834141Y-97845002D02*
X128596046Y-98559288D01*
X129215094Y-98559288D01*
X141667503Y-91566026D02*
X141715122Y-91613645D01*
X141762741Y-91756502D01*
X141762741Y-91851740D01*
X141715122Y-91994598D01*
X141619884Y-92089836D01*
X141524646Y-92137455D01*
X141334170Y-92185074D01*
X141191312Y-92185074D01*
X141000836Y-92137455D01*
X140905598Y-92089836D01*
X140810360Y-91994598D01*
X140762741Y-91851740D01*
X140762741Y-91756502D01*
X140810360Y-91613645D01*
X140857979Y-91566026D01*
X140762741Y-90661264D02*
X140762741Y-91137455D01*
X141238931Y-91185074D01*
X141191312Y-91137455D01*
X141143693Y-91042217D01*
X141143693Y-90804121D01*
X141191312Y-90708883D01*
X141238931Y-90661264D01*
X141334170Y-90613645D01*
X141572265Y-90613645D01*
X141667503Y-90661264D01*
X141715122Y-90708883D01*
X141762741Y-90804121D01*
X141762741Y-91042217D01*
X141715122Y-91137455D01*
X141667503Y-91185074D01*
X141692903Y-98652626D02*
X141740522Y-98700245D01*
X141788141Y-98843102D01*
X141788141Y-98938340D01*
X141740522Y-99081198D01*
X141645284Y-99176436D01*
X141550046Y-99224055D01*
X141359570Y-99271674D01*
X141216712Y-99271674D01*
X141026236Y-99224055D01*
X140930998Y-99176436D01*
X140835760Y-99081198D01*
X140788141Y-98938340D01*
X140788141Y-98843102D01*
X140835760Y-98700245D01*
X140883379Y-98652626D01*
X140788141Y-97795483D02*
X140788141Y-97985960D01*
X140835760Y-98081198D01*
X140883379Y-98128817D01*
X141026236Y-98224055D01*
X141216712Y-98271674D01*
X141597665Y-98271674D01*
X141692903Y-98224055D01*
X141740522Y-98176436D01*
X141788141Y-98081198D01*
X141788141Y-97890721D01*
X141740522Y-97795483D01*
X141692903Y-97747864D01*
X141597665Y-97700245D01*
X141359570Y-97700245D01*
X141264331Y-97747864D01*
X141216712Y-97795483D01*
X141169093Y-97890721D01*
X141169093Y-98081198D01*
X141216712Y-98176436D01*
X141264331Y-98224055D01*
X141359570Y-98271674D01*
X114511794Y-108177603D02*
X114464175Y-108225222D01*
X114321318Y-108272841D01*
X114226080Y-108272841D01*
X114083222Y-108225222D01*
X113987984Y-108129984D01*
X113940365Y-108034746D01*
X113892746Y-107844270D01*
X113892746Y-107701412D01*
X113940365Y-107510936D01*
X113987984Y-107415698D01*
X114083222Y-107320460D01*
X114226080Y-107272841D01*
X114321318Y-107272841D01*
X114464175Y-107320460D01*
X114511794Y-107368079D01*
X114845127Y-107272841D02*
X115511794Y-107272841D01*
X115083222Y-108272841D01*
X116442194Y-107910903D02*
X116394575Y-107958522D01*
X116251718Y-108006141D01*
X116156480Y-108006141D01*
X116013622Y-107958522D01*
X115918384Y-107863284D01*
X115870765Y-107768046D01*
X115823146Y-107577570D01*
X115823146Y-107434712D01*
X115870765Y-107244236D01*
X115918384Y-107148998D01*
X116013622Y-107053760D01*
X116156480Y-107006141D01*
X116251718Y-107006141D01*
X116394575Y-107053760D01*
X116442194Y-107101379D01*
X117013622Y-107434712D02*
X116918384Y-107387093D01*
X116870765Y-107339474D01*
X116823146Y-107244236D01*
X116823146Y-107196617D01*
X116870765Y-107101379D01*
X116918384Y-107053760D01*
X117013622Y-107006141D01*
X117204099Y-107006141D01*
X117299337Y-107053760D01*
X117346956Y-107101379D01*
X117394575Y-107196617D01*
X117394575Y-107244236D01*
X117346956Y-107339474D01*
X117299337Y-107387093D01*
X117204099Y-107434712D01*
X117013622Y-107434712D01*
X116918384Y-107482331D01*
X116870765Y-107529950D01*
X116823146Y-107625189D01*
X116823146Y-107815665D01*
X116870765Y-107910903D01*
X116918384Y-107958522D01*
X117013622Y-108006141D01*
X117204099Y-108006141D01*
X117299337Y-107958522D01*
X117346956Y-107910903D01*
X117394575Y-107815665D01*
X117394575Y-107625189D01*
X117346956Y-107529950D01*
X117299337Y-107482331D01*
X117204099Y-107434712D01*
X132833334Y-100057143D02*
X132785715Y-100104762D01*
X132642858Y-100152381D01*
X132547620Y-100152381D01*
X132404762Y-100104762D01*
X132309524Y-100009524D01*
X132261905Y-99914286D01*
X132214286Y-99723810D01*
X132214286Y-99580952D01*
X132261905Y-99390476D01*
X132309524Y-99295238D01*
X132404762Y-99200000D01*
X132547620Y-99152381D01*
X132642858Y-99152381D01*
X132785715Y-99200000D01*
X132833334Y-99247619D01*
X133309524Y-100152381D02*
X133500000Y-100152381D01*
X133595239Y-100104762D01*
X133642858Y-100057143D01*
X133738096Y-99914286D01*
X133785715Y-99723810D01*
X133785715Y-99342857D01*
X133738096Y-99247619D01*
X133690477Y-99200000D01*
X133595239Y-99152381D01*
X133404762Y-99152381D01*
X133309524Y-99200000D01*
X133261905Y-99247619D01*
X133214286Y-99342857D01*
X133214286Y-99580952D01*
X133261905Y-99676190D01*
X133309524Y-99723810D01*
X133404762Y-99771429D01*
X133595239Y-99771429D01*
X133690477Y-99723810D01*
X133738096Y-99676190D01*
X133785715Y-99580952D01*
X133183903Y-106456717D02*
X133231522Y-106504336D01*
X133279141Y-106647193D01*
X133279141Y-106742431D01*
X133231522Y-106885289D01*
X133136284Y-106980527D01*
X133041046Y-107028146D01*
X132850570Y-107075765D01*
X132707712Y-107075765D01*
X132517236Y-107028146D01*
X132421998Y-106980527D01*
X132326760Y-106885289D01*
X132279141Y-106742431D01*
X132279141Y-106647193D01*
X132326760Y-106504336D01*
X132374379Y-106456717D01*
X133279141Y-105504336D02*
X133279141Y-106075765D01*
X133279141Y-105790051D02*
X132279141Y-105790051D01*
X132421998Y-105885289D01*
X132517236Y-105980527D01*
X132564855Y-106075765D01*
X132279141Y-104885289D02*
X132279141Y-104790050D01*
X132326760Y-104694812D01*
X132374379Y-104647193D01*
X132469617Y-104599574D01*
X132660093Y-104551955D01*
X132898189Y-104551955D01*
X133088665Y-104599574D01*
X133183903Y-104647193D01*
X133231522Y-104694812D01*
X133279141Y-104790050D01*
X133279141Y-104885289D01*
X133231522Y-104980527D01*
X133183903Y-105028146D01*
X133088665Y-105075765D01*
X132898189Y-105123384D01*
X132660093Y-105123384D01*
X132469617Y-105075765D01*
X132374379Y-105028146D01*
X132326760Y-104980527D01*
X132279141Y-104885289D01*
X129260363Y-108269043D02*
X129212744Y-108316662D01*
X129069887Y-108364281D01*
X128974649Y-108364281D01*
X128831791Y-108316662D01*
X128736553Y-108221424D01*
X128688934Y-108126186D01*
X128641315Y-107935710D01*
X128641315Y-107792852D01*
X128688934Y-107602376D01*
X128736553Y-107507138D01*
X128831791Y-107411900D01*
X128974649Y-107364281D01*
X129069887Y-107364281D01*
X129212744Y-107411900D01*
X129260363Y-107459519D01*
X130212744Y-108364281D02*
X129641315Y-108364281D01*
X129927029Y-108364281D02*
X129927029Y-107364281D01*
X129831791Y-107507138D01*
X129736553Y-107602376D01*
X129641315Y-107649995D01*
X131165125Y-108364281D02*
X130593696Y-108364281D01*
X130879410Y-108364281D02*
X130879410Y-107364281D01*
X130784172Y-107507138D01*
X130688934Y-107602376D01*
X130593696Y-107649995D01*
X132051823Y-91426303D02*
X132004204Y-91473922D01*
X131861347Y-91521541D01*
X131766109Y-91521541D01*
X131623251Y-91473922D01*
X131528013Y-91378684D01*
X131480394Y-91283446D01*
X131432775Y-91092970D01*
X131432775Y-90950112D01*
X131480394Y-90759636D01*
X131528013Y-90664398D01*
X131623251Y-90569160D01*
X131766109Y-90521541D01*
X131861347Y-90521541D01*
X132004204Y-90569160D01*
X132051823Y-90616779D01*
X133004204Y-91521541D02*
X132432775Y-91521541D01*
X132718489Y-91521541D02*
X132718489Y-90521541D01*
X132623251Y-90664398D01*
X132528013Y-90759636D01*
X132432775Y-90807255D01*
X133337537Y-90521541D02*
X133956585Y-90521541D01*
X133623251Y-90902493D01*
X133766109Y-90902493D01*
X133861347Y-90950112D01*
X133908966Y-90997731D01*
X133956585Y-91092970D01*
X133956585Y-91331065D01*
X133908966Y-91426303D01*
X133861347Y-91473922D01*
X133766109Y-91521541D01*
X133480394Y-91521541D01*
X133385156Y-91473922D01*
X133337537Y-91426303D01*
X146163303Y-101110017D02*
X146210922Y-101157636D01*
X146258541Y-101300493D01*
X146258541Y-101395731D01*
X146210922Y-101538589D01*
X146115684Y-101633827D01*
X146020446Y-101681446D01*
X145829970Y-101729065D01*
X145687112Y-101729065D01*
X145496636Y-101681446D01*
X145401398Y-101633827D01*
X145306160Y-101538589D01*
X145258541Y-101395731D01*
X145258541Y-101300493D01*
X145306160Y-101157636D01*
X145353779Y-101110017D01*
X146258541Y-100157636D02*
X146258541Y-100729065D01*
X146258541Y-100443351D02*
X145258541Y-100443351D01*
X145401398Y-100538589D01*
X145496636Y-100633827D01*
X145544255Y-100729065D01*
X145258541Y-99252874D02*
X145258541Y-99729065D01*
X145734731Y-99776684D01*
X145687112Y-99729065D01*
X145639493Y-99633827D01*
X145639493Y-99395731D01*
X145687112Y-99300493D01*
X145734731Y-99252874D01*
X145829970Y-99205255D01*
X146068065Y-99205255D01*
X146163303Y-99252874D01*
X146210922Y-99300493D01*
X146258541Y-99395731D01*
X146258541Y-99633827D01*
X146210922Y-99729065D01*
X146163303Y-99776684D01*
X152929863Y-94526337D02*
X152977482Y-94573956D01*
X153025101Y-94716813D01*
X153025101Y-94812051D01*
X152977482Y-94954909D01*
X152882244Y-95050147D01*
X152787006Y-95097766D01*
X152596530Y-95145385D01*
X152453672Y-95145385D01*
X152263196Y-95097766D01*
X152167958Y-95050147D01*
X152072720Y-94954909D01*
X152025101Y-94812051D01*
X152025101Y-94716813D01*
X152072720Y-94573956D01*
X152120339Y-94526337D01*
X153025101Y-93573956D02*
X153025101Y-94145385D01*
X153025101Y-93859671D02*
X152025101Y-93859671D01*
X152167958Y-93954909D01*
X152263196Y-94050147D01*
X152310815Y-94145385D01*
X152025101Y-93240623D02*
X152025101Y-92573956D01*
X153025101Y-93002528D01*
X147230103Y-107409217D02*
X147277722Y-107456836D01*
X147325341Y-107599693D01*
X147325341Y-107694931D01*
X147277722Y-107837789D01*
X147182484Y-107933027D01*
X147087246Y-107980646D01*
X146896770Y-108028265D01*
X146753912Y-108028265D01*
X146563436Y-107980646D01*
X146468198Y-107933027D01*
X146372960Y-107837789D01*
X146325341Y-107694931D01*
X146325341Y-107599693D01*
X146372960Y-107456836D01*
X146420579Y-107409217D01*
X146420579Y-107028265D02*
X146372960Y-106980646D01*
X146325341Y-106885408D01*
X146325341Y-106647312D01*
X146372960Y-106552074D01*
X146420579Y-106504455D01*
X146515817Y-106456836D01*
X146611055Y-106456836D01*
X146753912Y-106504455D01*
X147325341Y-107075884D01*
X147325341Y-106456836D01*
X146325341Y-105552074D02*
X146325341Y-106028265D01*
X146801531Y-106075884D01*
X146753912Y-106028265D01*
X146706293Y-105933027D01*
X146706293Y-105694931D01*
X146753912Y-105599693D01*
X146801531Y-105552074D01*
X146896770Y-105504455D01*
X147134865Y-105504455D01*
X147230103Y-105552074D01*
X147277722Y-105599693D01*
X147325341Y-105694931D01*
X147325341Y-105933027D01*
X147277722Y-106028265D01*
X147230103Y-106075884D01*
X145782303Y-107409217D02*
X145829922Y-107456836D01*
X145877541Y-107599693D01*
X145877541Y-107694931D01*
X145829922Y-107837789D01*
X145734684Y-107933027D01*
X145639446Y-107980646D01*
X145448970Y-108028265D01*
X145306112Y-108028265D01*
X145115636Y-107980646D01*
X145020398Y-107933027D01*
X144925160Y-107837789D01*
X144877541Y-107694931D01*
X144877541Y-107599693D01*
X144925160Y-107456836D01*
X144972779Y-107409217D01*
X144972779Y-107028265D02*
X144925160Y-106980646D01*
X144877541Y-106885408D01*
X144877541Y-106647312D01*
X144925160Y-106552074D01*
X144972779Y-106504455D01*
X145068017Y-106456836D01*
X145163255Y-106456836D01*
X145306112Y-106504455D01*
X145877541Y-107075884D01*
X145877541Y-106456836D01*
X144877541Y-105599693D02*
X144877541Y-105790170D01*
X144925160Y-105885408D01*
X144972779Y-105933027D01*
X145115636Y-106028265D01*
X145306112Y-106075884D01*
X145687065Y-106075884D01*
X145782303Y-106028265D01*
X145829922Y-105980646D01*
X145877541Y-105885408D01*
X145877541Y-105694931D01*
X145829922Y-105599693D01*
X145782303Y-105552074D01*
X145687065Y-105504455D01*
X145448970Y-105504455D01*
X145353731Y-105552074D01*
X145306112Y-105599693D01*
X145258493Y-105694931D01*
X145258493Y-105885408D01*
X145306112Y-105980646D01*
X145353731Y-106028265D01*
X145448970Y-106075884D01*
X125709941Y-95947526D02*
X125709941Y-96423717D01*
X124709941Y-96423717D01*
X125709941Y-95090383D02*
X125709941Y-95661812D01*
X125709941Y-95376098D02*
X124709941Y-95376098D01*
X124852798Y-95471336D01*
X124948036Y-95566574D01*
X124995655Y-95661812D01*
X137247334Y-104846381D02*
X136771143Y-104846381D01*
X136771143Y-103846381D01*
X137533048Y-103941619D02*
X137580667Y-103894000D01*
X137675905Y-103846381D01*
X137914001Y-103846381D01*
X138009239Y-103894000D01*
X138056858Y-103941619D01*
X138104477Y-104036857D01*
X138104477Y-104132095D01*
X138056858Y-104274952D01*
X137485429Y-104846381D01*
X138104477Y-104846381D01*
X151516341Y-93369426D02*
X151516341Y-93845617D01*
X150516341Y-93845617D01*
X150516341Y-93131331D02*
X150516341Y-92512283D01*
X150897293Y-92845617D01*
X150897293Y-92702759D01*
X150944912Y-92607521D01*
X150992531Y-92559902D01*
X151087770Y-92512283D01*
X151325865Y-92512283D01*
X151421103Y-92559902D01*
X151468722Y-92607521D01*
X151516341Y-92702759D01*
X151516341Y-92988474D01*
X151468722Y-93083712D01*
X151421103Y-93131331D01*
X151328381Y-105322666D02*
X151328381Y-105798857D01*
X150328381Y-105798857D01*
X150661714Y-104560761D02*
X151328381Y-104560761D01*
X150280762Y-104798857D02*
X150995048Y-105036952D01*
X150995048Y-104417904D01*
X113304762Y-90247619D02*
X113209524Y-90200000D01*
X113114286Y-90104762D01*
X112971429Y-89961905D01*
X112876190Y-89914286D01*
X112780952Y-89914286D01*
X112828571Y-90152381D02*
X112733333Y-90104762D01*
X112638095Y-90009524D01*
X112590476Y-89819048D01*
X112590476Y-89485714D01*
X112638095Y-89295238D01*
X112733333Y-89200000D01*
X112828571Y-89152381D01*
X113019048Y-89152381D01*
X113114286Y-89200000D01*
X113209524Y-89295238D01*
X113257143Y-89485714D01*
X113257143Y-89819048D01*
X113209524Y-90009524D01*
X113114286Y-90104762D01*
X113019048Y-90152381D01*
X112828571Y-90152381D01*
X114209524Y-90152381D02*
X113638095Y-90152381D01*
X113923809Y-90152381D02*
X113923809Y-89152381D01*
X113828571Y-89295238D01*
X113733333Y-89390476D01*
X113638095Y-89438095D01*
X109835962Y-90260859D02*
X109740724Y-90213240D01*
X109645486Y-90118002D01*
X109502629Y-89975145D01*
X109407390Y-89927526D01*
X109312152Y-89927526D01*
X109359771Y-90165621D02*
X109264533Y-90118002D01*
X109169295Y-90022764D01*
X109121676Y-89832288D01*
X109121676Y-89498954D01*
X109169295Y-89308478D01*
X109264533Y-89213240D01*
X109359771Y-89165621D01*
X109550248Y-89165621D01*
X109645486Y-89213240D01*
X109740724Y-89308478D01*
X109788343Y-89498954D01*
X109788343Y-89832288D01*
X109740724Y-90022764D01*
X109645486Y-90118002D01*
X109550248Y-90165621D01*
X109359771Y-90165621D01*
X110169295Y-89260859D02*
X110216914Y-89213240D01*
X110312152Y-89165621D01*
X110550248Y-89165621D01*
X110645486Y-89213240D01*
X110693105Y-89260859D01*
X110740724Y-89356097D01*
X110740724Y-89451335D01*
X110693105Y-89594192D01*
X110121676Y-90165621D01*
X110740724Y-90165621D01*
X105647739Y-95975158D02*
X105600120Y-96070396D01*
X105504882Y-96165634D01*
X105362025Y-96308491D01*
X105314406Y-96403730D01*
X105314406Y-96498968D01*
X105552501Y-96451349D02*
X105504882Y-96546587D01*
X105409644Y-96641825D01*
X105219168Y-96689444D01*
X104885834Y-96689444D01*
X104695358Y-96641825D01*
X104600120Y-96546587D01*
X104552501Y-96451349D01*
X104552501Y-96260872D01*
X104600120Y-96165634D01*
X104695358Y-96070396D01*
X104885834Y-96022777D01*
X105219168Y-96022777D01*
X105409644Y-96070396D01*
X105504882Y-96165634D01*
X105552501Y-96260872D01*
X105552501Y-96451349D01*
X104552501Y-95689444D02*
X104552501Y-95070396D01*
X104933453Y-95403730D01*
X104933453Y-95260872D01*
X104981072Y-95165634D01*
X105028691Y-95118015D01*
X105123930Y-95070396D01*
X105362025Y-95070396D01*
X105457263Y-95118015D01*
X105504882Y-95165634D01*
X105552501Y-95260872D01*
X105552501Y-95546587D01*
X105504882Y-95641825D01*
X105457263Y-95689444D01*
X122297619Y-101995238D02*
X122250000Y-102090476D01*
X122154762Y-102185714D01*
X122011905Y-102328571D01*
X121964286Y-102423810D01*
X121964286Y-102519048D01*
X122202381Y-102471429D02*
X122154762Y-102566667D01*
X122059524Y-102661905D01*
X121869048Y-102709524D01*
X121535714Y-102709524D01*
X121345238Y-102661905D01*
X121250000Y-102566667D01*
X121202381Y-102471429D01*
X121202381Y-102280952D01*
X121250000Y-102185714D01*
X121345238Y-102090476D01*
X121535714Y-102042857D01*
X121869048Y-102042857D01*
X122059524Y-102090476D01*
X122154762Y-102185714D01*
X122202381Y-102280952D01*
X122202381Y-102471429D01*
X121535714Y-101185714D02*
X122202381Y-101185714D01*
X121154762Y-101423810D02*
X121869048Y-101661905D01*
X121869048Y-101042857D01*
X108783334Y-103602381D02*
X108450000Y-103126190D01*
X108211905Y-103602381D02*
X108211905Y-102602381D01*
X108592858Y-102602381D01*
X108688096Y-102650000D01*
X108735715Y-102697619D01*
X108783334Y-102792857D01*
X108783334Y-102935714D01*
X108735715Y-103030952D01*
X108688096Y-103078571D01*
X108592858Y-103126190D01*
X108211905Y-103126190D01*
X109735715Y-103602381D02*
X109164286Y-103602381D01*
X109450000Y-103602381D02*
X109450000Y-102602381D01*
X109354762Y-102745238D01*
X109259524Y-102840476D01*
X109164286Y-102888095D01*
X127783294Y-95941141D02*
X127449960Y-95464950D01*
X127211865Y-95941141D02*
X127211865Y-94941141D01*
X127592818Y-94941141D01*
X127688056Y-94988760D01*
X127735675Y-95036379D01*
X127783294Y-95131617D01*
X127783294Y-95274474D01*
X127735675Y-95369712D01*
X127688056Y-95417331D01*
X127592818Y-95464950D01*
X127211865Y-95464950D01*
X128164246Y-95036379D02*
X128211865Y-94988760D01*
X128307103Y-94941141D01*
X128545199Y-94941141D01*
X128640437Y-94988760D01*
X128688056Y-95036379D01*
X128735675Y-95131617D01*
X128735675Y-95226855D01*
X128688056Y-95369712D01*
X128116627Y-95941141D01*
X128735675Y-95941141D01*
X127925534Y-90657941D02*
X127592200Y-90181750D01*
X127354105Y-90657941D02*
X127354105Y-89657941D01*
X127735058Y-89657941D01*
X127830296Y-89705560D01*
X127877915Y-89753179D01*
X127925534Y-89848417D01*
X127925534Y-89991274D01*
X127877915Y-90086512D01*
X127830296Y-90134131D01*
X127735058Y-90181750D01*
X127354105Y-90181750D01*
X128258867Y-89657941D02*
X128877915Y-89657941D01*
X128544581Y-90038893D01*
X128687439Y-90038893D01*
X128782677Y-90086512D01*
X128830296Y-90134131D01*
X128877915Y-90229370D01*
X128877915Y-90467465D01*
X128830296Y-90562703D01*
X128782677Y-90610322D01*
X128687439Y-90657941D01*
X128401724Y-90657941D01*
X128306486Y-90610322D01*
X128258867Y-90562703D01*
X116200894Y-104259641D02*
X115867560Y-103783450D01*
X115629465Y-104259641D02*
X115629465Y-103259641D01*
X116010418Y-103259641D01*
X116105656Y-103307260D01*
X116153275Y-103354879D01*
X116200894Y-103450117D01*
X116200894Y-103592974D01*
X116153275Y-103688212D01*
X116105656Y-103735831D01*
X116010418Y-103783450D01*
X115629465Y-103783450D01*
X117058037Y-103592974D02*
X117058037Y-104259641D01*
X116819941Y-103212022D02*
X116581846Y-103926308D01*
X117200894Y-103926308D01*
X113383334Y-97002381D02*
X113050000Y-96526190D01*
X112811905Y-97002381D02*
X112811905Y-96002381D01*
X113192858Y-96002381D01*
X113288096Y-96050000D01*
X113335715Y-96097619D01*
X113383334Y-96192857D01*
X113383334Y-96335714D01*
X113335715Y-96430952D01*
X113288096Y-96478571D01*
X113192858Y-96526190D01*
X112811905Y-96526190D01*
X113954762Y-96430952D02*
X113859524Y-96383333D01*
X113811905Y-96335714D01*
X113764286Y-96240476D01*
X113764286Y-96192857D01*
X113811905Y-96097619D01*
X113859524Y-96050000D01*
X113954762Y-96002381D01*
X114145239Y-96002381D01*
X114240477Y-96050000D01*
X114288096Y-96097619D01*
X114335715Y-96192857D01*
X114335715Y-96240476D01*
X114288096Y-96335714D01*
X114240477Y-96383333D01*
X114145239Y-96430952D01*
X113954762Y-96430952D01*
X113859524Y-96478571D01*
X113811905Y-96526190D01*
X113764286Y-96621429D01*
X113764286Y-96811905D01*
X113811905Y-96907143D01*
X113859524Y-96954762D01*
X113954762Y-97002381D01*
X114145239Y-97002381D01*
X114240477Y-96954762D01*
X114288096Y-96907143D01*
X114335715Y-96811905D01*
X114335715Y-96621429D01*
X114288096Y-96526190D01*
X114240477Y-96478571D01*
X114145239Y-96430952D01*
X110402381Y-95745238D02*
X109926190Y-96078572D01*
X110402381Y-96316667D02*
X109402381Y-96316667D01*
X109402381Y-95935714D01*
X109450000Y-95840476D01*
X109497619Y-95792857D01*
X109592857Y-95745238D01*
X109735714Y-95745238D01*
X109830952Y-95792857D01*
X109878571Y-95840476D01*
X109926190Y-95935714D01*
X109926190Y-96316667D01*
X110307143Y-94745238D02*
X110354762Y-94792857D01*
X110402381Y-94935714D01*
X110402381Y-95030952D01*
X110354762Y-95173810D01*
X110259524Y-95269048D01*
X110164286Y-95316667D01*
X109973810Y-95364286D01*
X109830952Y-95364286D01*
X109640476Y-95316667D01*
X109545238Y-95269048D01*
X109450000Y-95173810D01*
X109402381Y-95030952D01*
X109402381Y-94935714D01*
X109450000Y-94792857D01*
X109497619Y-94745238D01*
X110402381Y-93840476D02*
X110402381Y-94316667D01*
X109402381Y-94316667D01*
X108411022Y-107091741D02*
X108077688Y-106615550D01*
X107839593Y-107091741D02*
X107839593Y-106091741D01*
X108220546Y-106091741D01*
X108315784Y-106139360D01*
X108363403Y-106186979D01*
X108411022Y-106282217D01*
X108411022Y-106425074D01*
X108363403Y-106520312D01*
X108315784Y-106567931D01*
X108220546Y-106615550D01*
X107839593Y-106615550D01*
X109315784Y-107091741D02*
X108839593Y-107091741D01*
X108839593Y-106091741D01*
X118652381Y-102042857D02*
X118176190Y-102376191D01*
X118652381Y-102614286D02*
X117652381Y-102614286D01*
X117652381Y-102233333D01*
X117700000Y-102138095D01*
X117747619Y-102090476D01*
X117842857Y-102042857D01*
X117985714Y-102042857D01*
X118080952Y-102090476D01*
X118128571Y-102138095D01*
X118176190Y-102233333D01*
X118176190Y-102614286D01*
X118604762Y-101661905D02*
X118652381Y-101519048D01*
X118652381Y-101280952D01*
X118604762Y-101185714D01*
X118557143Y-101138095D01*
X118461905Y-101090476D01*
X118366667Y-101090476D01*
X118271429Y-101138095D01*
X118223810Y-101185714D01*
X118176190Y-101280952D01*
X118128571Y-101471429D01*
X118080952Y-101566667D01*
X118033333Y-101614286D01*
X117938095Y-101661905D01*
X117842857Y-101661905D01*
X117747619Y-101614286D01*
X117700000Y-101566667D01*
X117652381Y-101471429D01*
X117652381Y-101233333D01*
X117700000Y-101090476D01*
X118128571Y-100661905D02*
X118128571Y-100328571D01*
X118652381Y-100185714D02*
X118652381Y-100661905D01*
X117652381Y-100661905D01*
X117652381Y-100185714D01*
X118652381Y-99757143D02*
X117652381Y-99757143D01*
X118652381Y-99185714D01*
X117652381Y-99185714D01*
X110628572Y-105652381D02*
X110295238Y-105176190D01*
X110057143Y-105652381D02*
X110057143Y-104652381D01*
X110438096Y-104652381D01*
X110533334Y-104700000D01*
X110580953Y-104747619D01*
X110628572Y-104842857D01*
X110628572Y-104985714D01*
X110580953Y-105080952D01*
X110533334Y-105128571D01*
X110438096Y-105176190D01*
X110057143Y-105176190D01*
X110914286Y-104652381D02*
X111485715Y-104652381D01*
X111200000Y-105652381D02*
X111200000Y-104652381D01*
X111390822Y-108310941D02*
X111057488Y-107834750D01*
X110819393Y-108310941D02*
X110819393Y-107310941D01*
X111200346Y-107310941D01*
X111295584Y-107358560D01*
X111343203Y-107406179D01*
X111390822Y-107501417D01*
X111390822Y-107644274D01*
X111343203Y-107739512D01*
X111295584Y-107787131D01*
X111200346Y-107834750D01*
X110819393Y-107834750D01*
X111676536Y-107310941D02*
X112247965Y-107310941D01*
X111962250Y-108310941D02*
X111962250Y-107310941D01*
X112581298Y-108310941D02*
X112581298Y-107310941D01*
X112581298Y-107787131D02*
X113152727Y-107787131D01*
X113152727Y-108310941D02*
X113152727Y-107310941D01*
X108646141Y-101939465D02*
X109455665Y-101939465D01*
X109550903Y-101891846D01*
X109598522Y-101844227D01*
X109646141Y-101748989D01*
X109646141Y-101558512D01*
X109598522Y-101463274D01*
X109550903Y-101415655D01*
X109455665Y-101368036D01*
X108646141Y-101368036D01*
X109646141Y-100368036D02*
X109646141Y-100939465D01*
X109646141Y-100653751D02*
X108646141Y-100653751D01*
X108788998Y-100748989D01*
X108884236Y-100844227D01*
X108931855Y-100939465D01*
X134288095Y-91102381D02*
X134288095Y-91911905D01*
X134335714Y-92007143D01*
X134383333Y-92054762D01*
X134478571Y-92102381D01*
X134669048Y-92102381D01*
X134764286Y-92054762D01*
X134811905Y-92007143D01*
X134859524Y-91911905D01*
X134859524Y-91102381D01*
X135288095Y-91197619D02*
X135335714Y-91150000D01*
X135430952Y-91102381D01*
X135669048Y-91102381D01*
X135764286Y-91150000D01*
X135811905Y-91197619D01*
X135859524Y-91292857D01*
X135859524Y-91388095D01*
X135811905Y-91530952D01*
X135240476Y-92102381D01*
X135859524Y-92102381D01*
X133352381Y-98192857D02*
X132876190Y-98526191D01*
X133352381Y-98764286D02*
X132352381Y-98764286D01*
X132352381Y-98383333D01*
X132400000Y-98288095D01*
X132447619Y-98240476D01*
X132542857Y-98192857D01*
X132685714Y-98192857D01*
X132780952Y-98240476D01*
X132828571Y-98288095D01*
X132876190Y-98383333D01*
X132876190Y-98764286D01*
X133352381Y-97240476D02*
X133352381Y-97811905D01*
X133352381Y-97526191D02*
X132352381Y-97526191D01*
X132495238Y-97621429D01*
X132590476Y-97716667D01*
X132638095Y-97811905D01*
X133352381Y-96288095D02*
X133352381Y-96859524D01*
X133352381Y-96573810D02*
X132352381Y-96573810D01*
X132495238Y-96669048D01*
X132590476Y-96764286D01*
X132638095Y-96859524D01*
X144837162Y-98998019D02*
X144741924Y-98950400D01*
X144646686Y-98855162D01*
X144503829Y-98712305D01*
X144408590Y-98664686D01*
X144313352Y-98664686D01*
X144360971Y-98902781D02*
X144265733Y-98855162D01*
X144170495Y-98759924D01*
X144122876Y-98569448D01*
X144122876Y-98236114D01*
X144170495Y-98045638D01*
X144265733Y-97950400D01*
X144360971Y-97902781D01*
X144551448Y-97902781D01*
X144646686Y-97950400D01*
X144741924Y-98045638D01*
X144789543Y-98236114D01*
X144789543Y-98569448D01*
X144741924Y-98759924D01*
X144646686Y-98855162D01*
X144551448Y-98902781D01*
X144360971Y-98902781D01*
X145360971Y-98331352D02*
X145265733Y-98283733D01*
X145218114Y-98236114D01*
X145170495Y-98140876D01*
X145170495Y-98093257D01*
X145218114Y-97998019D01*
X145265733Y-97950400D01*
X145360971Y-97902781D01*
X145551448Y-97902781D01*
X145646686Y-97950400D01*
X145694305Y-97998019D01*
X145741924Y-98093257D01*
X145741924Y-98140876D01*
X145694305Y-98236114D01*
X145646686Y-98283733D01*
X145551448Y-98331352D01*
X145360971Y-98331352D01*
X145265733Y-98378971D01*
X145218114Y-98426590D01*
X145170495Y-98521829D01*
X145170495Y-98712305D01*
X145218114Y-98807543D01*
X145265733Y-98855162D01*
X145360971Y-98902781D01*
X145551448Y-98902781D01*
X145646686Y-98855162D01*
X145694305Y-98807543D01*
X145741924Y-98712305D01*
X145741924Y-98521829D01*
X145694305Y-98426590D01*
X145646686Y-98378971D01*
X145551448Y-98331352D01*
X127010421Y-103120723D02*
X127010421Y-103692152D01*
X127010421Y-103406438D02*
X126010421Y-103406438D01*
X126153278Y-103501676D01*
X126248516Y-103596914D01*
X126296135Y-103692152D01*
X126915183Y-102692152D02*
X126962802Y-102644533D01*
X127010421Y-102692152D01*
X126962802Y-102739771D01*
X126915183Y-102692152D01*
X127010421Y-102692152D01*
X126438992Y-102073105D02*
X126391373Y-102168343D01*
X126343754Y-102215962D01*
X126248516Y-102263581D01*
X126200897Y-102263581D01*
X126105659Y-102215962D01*
X126058040Y-102168343D01*
X126010421Y-102073105D01*
X126010421Y-101882628D01*
X126058040Y-101787390D01*
X126105659Y-101739771D01*
X126200897Y-101692152D01*
X126248516Y-101692152D01*
X126343754Y-101739771D01*
X126391373Y-101787390D01*
X126438992Y-101882628D01*
X126438992Y-102073105D01*
X126486611Y-102168343D01*
X126534230Y-102215962D01*
X126629469Y-102263581D01*
X126819945Y-102263581D01*
X126915183Y-102215962D01*
X126962802Y-102168343D01*
X127010421Y-102073105D01*
X127010421Y-101882628D01*
X126962802Y-101787390D01*
X126915183Y-101739771D01*
X126819945Y-101692152D01*
X126629469Y-101692152D01*
X126534230Y-101739771D01*
X126486611Y-101787390D01*
X126438992Y-101882628D01*
X126343754Y-101358819D02*
X127010421Y-101120724D01*
X126343754Y-100882628D01*
X148517789Y-98649541D02*
X149136837Y-98649541D01*
X148803503Y-99030493D01*
X148946361Y-99030493D01*
X149041599Y-99078112D01*
X149089218Y-99125731D01*
X149136837Y-99220970D01*
X149136837Y-99459065D01*
X149089218Y-99554303D01*
X149041599Y-99601922D01*
X148946361Y-99649541D01*
X148660646Y-99649541D01*
X148565408Y-99601922D01*
X148517789Y-99554303D01*
X149565408Y-99554303D02*
X149613027Y-99601922D01*
X149565408Y-99649541D01*
X149517789Y-99601922D01*
X149565408Y-99554303D01*
X149565408Y-99649541D01*
X149946360Y-98649541D02*
X150565408Y-98649541D01*
X150232074Y-99030493D01*
X150374932Y-99030493D01*
X150470170Y-99078112D01*
X150517789Y-99125731D01*
X150565408Y-99220970D01*
X150565408Y-99459065D01*
X150517789Y-99554303D01*
X150470170Y-99601922D01*
X150374932Y-99649541D01*
X150089217Y-99649541D01*
X149993979Y-99601922D01*
X149946360Y-99554303D01*
X150898741Y-98982874D02*
X151136836Y-99649541D01*
X151374932Y-98982874D01*
X152007143Y-100652381D02*
X151530952Y-100652381D01*
X151483333Y-101128571D01*
X151530952Y-101080952D01*
X151626190Y-101033333D01*
X151864286Y-101033333D01*
X151959524Y-101080952D01*
X152007143Y-101128571D01*
X152054762Y-101223810D01*
X152054762Y-101461905D01*
X152007143Y-101557143D01*
X151959524Y-101604762D01*
X151864286Y-101652381D01*
X151626190Y-101652381D01*
X151530952Y-101604762D01*
X151483333Y-101557143D01*
X152388095Y-100985714D02*
X152626190Y-101652381D01*
X152864286Y-100985714D01*
X126545507Y-97610562D02*
X126688364Y-97658181D01*
X126926460Y-97658181D01*
X127021698Y-97610562D01*
X127069317Y-97562943D01*
X127116936Y-97467705D01*
X127116936Y-97372467D01*
X127069317Y-97277229D01*
X127021698Y-97229610D01*
X126926460Y-97181990D01*
X126735983Y-97134371D01*
X126640745Y-97086752D01*
X126593126Y-97039133D01*
X126545507Y-96943895D01*
X126545507Y-96848657D01*
X126593126Y-96753419D01*
X126640745Y-96705800D01*
X126735983Y-96658181D01*
X126974079Y-96658181D01*
X127116936Y-96705800D01*
X127450269Y-96658181D02*
X127688364Y-97658181D01*
X127878841Y-96943895D01*
X128069317Y-97658181D01*
X128307412Y-96658181D01*
X128640745Y-96753419D02*
X128688364Y-96705800D01*
X128783602Y-96658181D01*
X129021698Y-96658181D01*
X129116936Y-96705800D01*
X129164555Y-96753419D01*
X129212174Y-96848657D01*
X129212174Y-96943895D01*
X129164555Y-97086752D01*
X128593126Y-97658181D01*
X129212174Y-97658181D01*
X132077223Y-90161383D02*
X132029604Y-90209002D01*
X131886747Y-90256621D01*
X131791509Y-90256621D01*
X131648651Y-90209002D01*
X131553413Y-90113764D01*
X131505794Y-90018526D01*
X131458175Y-89828050D01*
X131458175Y-89685192D01*
X131505794Y-89494716D01*
X131553413Y-89399478D01*
X131648651Y-89304240D01*
X131791509Y-89256621D01*
X131886747Y-89256621D01*
X132029604Y-89304240D01*
X132077223Y-89351859D01*
X133029604Y-90256621D02*
X132458175Y-90256621D01*
X132743889Y-90256621D02*
X132743889Y-89256621D01*
X132648651Y-89399478D01*
X132553413Y-89494716D01*
X132458175Y-89542335D01*
X133410556Y-89351859D02*
X133458175Y-89304240D01*
X133553413Y-89256621D01*
X133791509Y-89256621D01*
X133886747Y-89304240D01*
X133934366Y-89351859D01*
X133981985Y-89447097D01*
X133981985Y-89542335D01*
X133934366Y-89685192D01*
X133362937Y-90256621D01*
X133981985Y-90256621D01*
X114998667Y-91082762D02*
X115141524Y-91130381D01*
X115379620Y-91130381D01*
X115474858Y-91082762D01*
X115522477Y-91035143D01*
X115570096Y-90939905D01*
X115570096Y-90844667D01*
X115522477Y-90749429D01*
X115474858Y-90701810D01*
X115379620Y-90654190D01*
X115189143Y-90606571D01*
X115093905Y-90558952D01*
X115046286Y-90511333D01*
X114998667Y-90416095D01*
X114998667Y-90320857D01*
X115046286Y-90225619D01*
X115093905Y-90178000D01*
X115189143Y-90130381D01*
X115427239Y-90130381D01*
X115570096Y-90178000D01*
X115903429Y-90130381D02*
X116141524Y-91130381D01*
X116332001Y-90416095D01*
X116522477Y-91130381D01*
X116760572Y-90130381D01*
X117665334Y-91130381D02*
X117093905Y-91130381D01*
X117379619Y-91130381D02*
X117379619Y-90130381D01*
X117284381Y-90273238D01*
X117189143Y-90368476D01*
X117093905Y-90416095D01*
X116302494Y-96694263D02*
X116254875Y-96741882D01*
X116112018Y-96789501D01*
X116016780Y-96789501D01*
X115873922Y-96741882D01*
X115778684Y-96646644D01*
X115731065Y-96551406D01*
X115683446Y-96360930D01*
X115683446Y-96218072D01*
X115731065Y-96027596D01*
X115778684Y-95932358D01*
X115873922Y-95837120D01*
X116016780Y-95789501D01*
X116112018Y-95789501D01*
X116254875Y-95837120D01*
X116302494Y-95884739D01*
X116683446Y-95884739D02*
X116731065Y-95837120D01*
X116826303Y-95789501D01*
X117064399Y-95789501D01*
X117159637Y-95837120D01*
X117207256Y-95884739D01*
X117254875Y-95979977D01*
X117254875Y-96075215D01*
X117207256Y-96218072D01*
X116635827Y-96789501D01*
X117254875Y-96789501D01*
X104988456Y-103840660D02*
X104893218Y-103793041D01*
X104750361Y-103793041D01*
X104607503Y-103840660D01*
X104512265Y-103935898D01*
X104464646Y-104031136D01*
X104417027Y-104221612D01*
X104417027Y-104364470D01*
X104464646Y-104554946D01*
X104512265Y-104650184D01*
X104607503Y-104745422D01*
X104750361Y-104793041D01*
X104845599Y-104793041D01*
X104988456Y-104745422D01*
X105036075Y-104697803D01*
X105036075Y-104364470D01*
X104845599Y-104364470D01*
X105464646Y-104793041D02*
X105464646Y-103793041D01*
X106036075Y-104793041D01*
X106036075Y-103793041D01*
X106512265Y-104793041D02*
X106512265Y-103793041D01*
X106750360Y-103793041D01*
X106893218Y-103840660D01*
X106988456Y-103935898D01*
X107036075Y-104031136D01*
X107083694Y-104221612D01*
X107083694Y-104364470D01*
X107036075Y-104554946D01*
X106988456Y-104650184D01*
X106893218Y-104745422D01*
X106750360Y-104793041D01*
X106512265Y-104793041D01*
X105137272Y-93926481D02*
X104565843Y-93926481D01*
X104851557Y-93926481D02*
X104851557Y-92926481D01*
X104756319Y-93069338D01*
X104661081Y-93164576D01*
X104565843Y-93212195D01*
X105518224Y-93021719D02*
X105565843Y-92974100D01*
X105661081Y-92926481D01*
X105899177Y-92926481D01*
X105994415Y-92974100D01*
X106042034Y-93021719D01*
X106089653Y-93116957D01*
X106089653Y-93212195D01*
X106042034Y-93355052D01*
X105470605Y-93926481D01*
X106089653Y-93926481D01*
X106422986Y-93259814D02*
X106661081Y-93926481D01*
X106899177Y-93259814D01*
X120557042Y-107919211D02*
X120699899Y-107966830D01*
X120747518Y-108014450D01*
X120795137Y-108109688D01*
X120795137Y-108252545D01*
X120747518Y-108347783D01*
X120699899Y-108395402D01*
X120604661Y-108443021D01*
X120223708Y-108443021D01*
X120223708Y-107443021D01*
X120557042Y-107443021D01*
X120652280Y-107490640D01*
X120699899Y-107538259D01*
X120747518Y-107633497D01*
X120747518Y-107728735D01*
X120699899Y-107823973D01*
X120652280Y-107871592D01*
X120557042Y-107919211D01*
X120223708Y-107919211D01*
X121223708Y-108062069D02*
X121985613Y-108062069D01*
X121604661Y-108443021D02*
X121604661Y-107681116D01*
M02*
